<?xml version="1.0" encoding="UTF-8"?>
<svg id="Ebene_2" data-name="Ebene 2" xmlns="http://www.w3.org/2000/svg" viewBox="0 0 294.19 58.56">
  <defs>
    <style>
      .cls-1 {
        fill: #1d2335;
      }

      .cls-2 {
        fill: #2271b1;
      }

      .cls-3 {
        fill: #f0f6fc;
      }
    </style>
  </defs>
  <g id="Ebene_1-2" data-name="Ebene 1">
    <g>
      <g>
        <path class="cls-1" d="M0,58.06V25.51h6.5v32.55H0Z"/>
        <path class="cls-1" d="M25.3,34.51l1.9-2.9c.75-.35,1.6-.65,2.75-.65,2.9,0,4.95,2.05,4.95,6.95v20.15h-5.95v-20.4c0-.95-.45-1.4-1.45-1.4-.7,0-1.25.2-1.9.6v21.2h-5.9v-20.4c0-.95-.5-1.4-1.45-1.4-.7,0-1.3.2-1.95.55v21.25h-5.95v-26.6h4.15l1.65,3.1,1.85-2.9c.75-.4,1.8-.7,3.1-.7,1.05,0,1.85.25,2.55.6l1.65,2.95Z"/>
        <path class="cls-1" d="M53.15,34.51l1.9-2.9c.75-.35,1.6-.65,2.75-.65,2.9,0,4.95,2.05,4.95,6.95v20.15h-5.95v-20.4c0-.95-.45-1.4-1.45-1.4-.7,0-1.25.2-1.9.6v21.2h-5.9v-20.4c0-.95-.5-1.4-1.45-1.4-.7,0-1.3.2-1.95.55v21.25h-5.95v-26.6h4.15l1.65,3.1,1.85-2.9c.75-.4,1.8-.7,3.1-.7,1.05,0,1.85.25,2.55.6l1.65,2.95Z"/>
        <path class="cls-1" d="M73.4,58.56c-5.1,0-8.15-3.85-8.15-13.75s2.95-13.85,8.15-13.85,8.1,3.9,8.1,13.7-3,13.9-8.1,13.9ZM73.4,53.66c1.45,0,1.95-.8,1.95-5.95v-5.9c0-5-.45-5.65-1.95-5.65s-2,.7-2,5.55v5.95c0,5.2.5,6,2,6Z"/>
        <path class="cls-1" d="M88.8,54.96l-1.6,3.2h-3.1V22.96h5.95v10.5c.95-1.5,2.3-2.5,4.1-2.5,4,0,5.95,3.8,5.95,14.1s-2.35,13.5-6.8,13.5c-1.35,0-2.3-.4-2.9-.7l-1.6-2.9ZM90.05,36.86v16.8c.55.4,1.1.7,1.85.7,1.5,0,2.15-1.2,2.15-5.35v-7.7c0-4.35-.55-5.25-2.05-5.25-.75,0-1.45.4-1.95.8Z"/>
        <path class="cls-1" d="M105.9,29.01c-1.85,0-3.45-1.35-3.45-3.4s1.6-3.45,3.45-3.45,3.45,1.3,3.45,3.45-1.6,3.4-3.45,3.4ZM102.95,58.06v-26.6h5.95v26.6h-5.95Z"/>
        <path class="cls-1" d="M112.55,58.06V22.96h6v35.1h-6Z"/>
        <path class="cls-1" d="M125.2,29.01c-1.85,0-3.45-1.35-3.45-3.4s1.6-3.45,3.45-3.45,3.45,1.3,3.45,3.45-1.6,3.4-3.45,3.4ZM122.25,58.06v-26.6h5.95v26.6h-5.95Z"/>
        <path class="cls-1" d="M137,46.86v.15c0,5.55.9,6.4,3.25,6.4,1.8,0,3.55-.7,4.95-1.25l.75,4.6c-1.2.85-3.35,1.8-6.1,1.8-5.85,0-8.95-4-8.95-13.75s2.95-13.85,8.15-13.85,7.4,4,7.4,11.9v4h-9.45ZM137,42.66h3.85v-2.1c0-3.85-.4-4.75-1.8-4.75-1.7,0-2,1.2-2.05,6.85Z"/>
        <path class="cls-1" d="M154.8,34.56l1.9-2.9c.75-.4,1.65-.7,2.8-.7,3,0,5.05,2.05,5.05,6.95v20.15h-5.95v-20.4c0-.95-.45-1.4-1.55-1.4-.65,0-1.3.2-2.05.55v21.25h-5.95v-26.6h4.15l1.6,3.1Z"/>
        <path class="cls-1" d="M187.8,44.81l2.65,2.55,2.85,10.7h-6.65l-3.05-12.25h-1.9v12.25h-6.5V25.51h8.25c5.7,0,9.2,2.8,9.2,10.5,0,5.05-1.35,7.8-4.85,8.8ZM181.59,41.26h1.65c2,0,2.8-.9,2.8-3.75v-2.7c0-2.9-.95-3.6-2.9-3.6h-1.55v10.05Z"/>
        <path class="cls-1" d="M200.75,46.86v.15c0,5.55.9,6.4,3.25,6.4,1.8,0,3.55-.7,4.95-1.25l.75,4.6c-1.2.85-3.35,1.8-6.1,1.8-5.85,0-8.95-4-8.95-13.75s2.95-13.85,8.15-13.85,7.4,4,7.4,11.9v4h-9.45ZM200.75,42.66h3.85v-2.1c0-3.85-.4-4.75-1.8-4.75-1.7,0-2,1.2-2.05,6.85Z"/>
        <path class="cls-1" d="M220.14,58.56c-5.2,0-8.15-4-8.15-13.75s2.95-13.85,8.35-13.85c2.15,0,3.8.7,4.7,1.35l-.9,4.75c-.95-.4-2-.75-3.3-.75-1.85,0-2.7.95-2.7,5.6v5.6c0,4.95.85,6,2.55,6,1.35,0,2.5-.5,3.65-1l.8,4.4c-.95.75-2.6,1.65-5,1.65Z"/>
        <path class="cls-1" d="M233.34,36.81v21.25h-5.95V22.96h5.95v11.7l2-3.1c.7-.4,1.5-.6,2.5-.6,3,0,5.05,2.05,5.05,6.95v20.15h-5.95v-20.4c0-.95-.45-1.4-1.55-1.4-.65,0-1.3.2-2.05.55Z"/>
        <path class="cls-1" d="M251.89,34.56l1.9-2.9c.75-.4,1.65-.7,2.8-.7,3,0,5.05,2.05,5.05,6.95v20.15h-5.95v-20.4c0-.95-.45-1.4-1.55-1.4-.65,0-1.3.2-2.05.55v21.25h-5.95v-26.6h4.15l1.6,3.1Z"/>
        <path class="cls-1" d="M270.19,46.86v.15c0,5.55.9,6.4,3.25,6.4,1.8,0,3.55-.7,4.95-1.25l.75,4.6c-1.2.85-3.35,1.8-6.1,1.8-5.85,0-8.95-4-8.95-13.75s2.95-13.85,8.15-13.85,7.4,4,7.4,11.9v4h-9.45ZM270.19,42.66h3.85v-2.1c0-3.85-.4-4.75-1.8-4.75-1.7,0-2,1.2-2.05,6.85Z"/>
        <path class="cls-1" d="M287.89,35.36l1.9-3.75c.6-.3,1.4-.55,2.35-.55,1,0,1.7.3,2.05.55l-.85,5.65c-.4-.15-1-.25-1.8-.25-1.25,0-2.35.25-3.35.85v20.2h-5.95v-26.6h3.95l1.7,3.9Z"/>
      </g>
      <rect class="cls-3" x="237.77" width="56.42" height="27.76" rx="12" ry="12"/>
      <g>
        <path class="cls-2" d="M251.57,22V6.11h3.91c2.93,0,4.59,1.56,4.59,5.64s-1.68,5.49-4.54,5.49h-.78v4.76h-3.17ZM254.72,14.75h.73c.98,0,1.34-.42,1.34-2.03v-1.9c0-1.61-.37-1.98-1.39-1.98h-.68v5.91Z"/>
        <path class="cls-2" d="M267.59,15.53l1.29,1.25,1.39,5.22h-3.25l-1.49-5.98h-.93v5.98h-3.17V6.11h4.03c2.78,0,4.49,1.37,4.49,5.13,0,2.47-.66,3.81-2.37,4.3ZM264.56,13.8h.81c.98,0,1.37-.44,1.37-1.83v-1.32c0-1.42-.46-1.76-1.42-1.76h-.76v4.91Z"/>
        <path class="cls-2" d="M275.84,22.25c-3.25,0-4.66-2.69-4.66-8.23s1.44-8.15,4.69-8.15,4.69,2.44,4.69,8.11-1.42,8.28-4.71,8.28ZM275.86,19.68c.98,0,1.39-.54,1.39-3.98v-3.71c0-2.91-.42-3.37-1.42-3.37s-1.37.49-1.37,3.47v3.69c0,3.44.44,3.91,1.39,3.91Z"/>
      </g>
    </g>
  </g>
</svg>